<svg viewBox="0 0 200 200" xmlns="http://www.w3.org/2000/svg" role="img" aria-label="Bud's Mobile Repair logo">
  <defs>
    <linearGradient id="blade" x1="0" y1="0" x2="1" y2="1">
      <stop offset="0" stop-color="#4aa8ff"/><stop offset="1" stop-color="#0a56c4"/>
    </linearGradient>
    <linearGradient id="steel" x1="0" y1="0" x2="1" y2="1">
      <stop offset="0" stop-color="#ffffff"/><stop offset="1" stop-color="#b9c3d1"/>
    </linearGradient>
  </defs>
  <path d="M 195.0,100.0 L 183.7,107.3 L 193.6,116.5 L 181.1,121.7 L 189.3,132.5 L 176.1,135.5 L 182.3,147.5 L 168.8,148.2 L 172.8,161.1 L 159.4,159.4 L 161.1,172.8 L 148.2,168.8 L 147.5,182.3 L 135.5,176.1 L 132.5,189.3 L 121.7,181.1 L 116.5,193.6 L 107.3,183.7 L 100.0,195.0 L 92.7,183.7 L 83.5,193.6 L 78.3,181.1 L 67.5,189.3 L 64.5,176.1 L 52.5,182.3 L 51.8,168.8 L 38.9,172.8 L 40.6,159.4 L 27.2,161.1 L 31.2,148.2 L 17.7,147.5 L 23.9,135.5 L 10.7,132.5 L 18.9,121.7 L 6.4,116.5 L 16.3,107.3 L 5.0,100.0 L 16.3,92.7 L 6.4,83.5 L 18.9,78.3 L 10.7,67.5 L 23.9,64.5 L 17.7,52.5 L 31.2,51.8 L 27.2,38.9 L 40.6,40.6 L 38.9,27.2 L 51.8,31.2 L 52.5,17.7 L 64.5,23.9 L 67.5,10.7 L 78.3,18.9 L 83.5,6.4 L 92.7,16.3 L 100.0,5.0 L 107.3,16.3 L 116.5,6.4 L 121.7,18.9 L 132.5,10.7 L 135.5,23.9 L 147.5,17.7 L 148.2,31.2 L 161.1,27.2 L 159.4,40.6 L 172.8,38.9 L 168.8,51.8 L 182.3,52.5 L 176.1,64.5 L 189.3,67.5 L 181.1,78.3 L 193.6,83.5 L 183.7,92.7 Z" fill="url(#blade)" stroke="#083f8f" stroke-width="2" stroke-linejoin="round"/>
  <circle cx="100" cy="100" r="74" fill="#07152b" opacity="0.30"/>
  <!-- steering wheel (subtle, behind tools) -->
  <g stroke="#f3f0da" stroke-width="6" fill="none" stroke-linecap="round" opacity="0.9">
    <circle cx="100" cy="100" r="38"/>
    <line x1="100" y1="100" x2="100" y2="62"/>
    <line x1="100" y1="100" x2="133" y2="119"/>
    <line x1="100" y1="100" x2="67" y2="119"/>
  </g>
  <circle cx="100" cy="100" r="10" fill="#f3f0da"/>
  <!-- WRENCH along "/" (open-end jaws + box ring) -->
  <g transform="rotate(-45 100 100)">
    <rect x="93.5" y="58" width="13" height="112" rx="6.5" fill="url(#steel)" stroke="#7c8797" stroke-width="1.6"/>
    <circle cx="100" cy="168" r="14" fill="none" stroke="#dfe6ef" stroke-width="8"/>
    <path d="M80 28 h13 v20 h14 v-20 h13 v28 a9 9 0 0 1 -9 9 h-22 a9 9 0 0 1 -9 -9 z"
          fill="url(#steel)" stroke="#7c8797" stroke-width="1.6" stroke-linejoin="round"/>
  </g>
  <!-- SCREWDRIVER along "\" -->
  <g transform="rotate(45 100 100)">
    <rect x="92" y="30" width="16" height="58" rx="8" fill="url(#steel)" stroke="#7c8797" stroke-width="1.6"/>
    <rect x="97" y="86" width="6" height="66" fill="#dfe6ef" stroke="#7c8797" stroke-width="1.2"/>
    <path d="M97 152 h6 l-3 16 z" fill="#c3ccd8" stroke="#7c8797" stroke-width="1"/>
  </g>
</svg>